<svg width="16" height="25" viewBox="0 0 16 25" fill="none" xmlns="http://www.w3.org/2000/svg">
<path d="M2.66659 13.4667V14.8H13.3333V13.4667H2.66659ZM2.66659 6.13333H13.3333C13.6999 6.13333 14.0138 6.26389 14.2749 6.525C14.536 6.78611 14.6666 7.1 14.6666 7.46667V14.8C14.6666 15.1667 14.536 15.4806 14.2749 15.7417C14.0138 16.0028 13.6999 16.1333 13.3333 16.1333H10.6666V19.4667L7.99992 18.1333L5.33325 19.4667V16.1333H2.66659C2.29992 16.1333 1.98603 16.0028 1.72492 15.7417C1.46381 15.4806 1.33325 15.1667 1.33325 14.8V7.46667C1.33325 7.1 1.46381 6.78611 1.72492 6.525C1.98603 6.26389 2.29992 6.13333 2.66659 6.13333ZM2.66659 11.4667H13.3333V7.46667H2.66659V11.4667Z" fill="#4B5563"/>
</svg>
