<svg width="16" height="20" viewBox="0 0 16 20" fill="none" xmlns="http://www.w3.org/2000/svg">
<path d="M4.66667 13.1333H6V8.46667H4.66667V13.1333ZM7.33333 13.1333H8.66667V6.46667H7.33333V13.1333ZM10 13.1333H11.3333V10.4667H10V13.1333ZM3.33333 15.8C2.96667 15.8 2.65278 15.6694 2.39167 15.4083C2.13056 15.1472 2 14.8333 2 14.4667V5.13334C2 4.76667 2.13056 4.45278 2.39167 4.19167C2.65278 3.93056 2.96667 3.8 3.33333 3.8H12.6667C13.0333 3.8 13.3472 3.93056 13.6083 4.19167C13.8694 4.45278 14 4.76667 14 5.13334V14.4667C14 14.8333 13.8694 15.1472 13.6083 15.4083C13.3472 15.6694 13.0333 15.8 12.6667 15.8H3.33333ZM3.33333 14.4667H12.6667V5.13334H3.33333V14.4667Z" fill="#4B5563"/>
</svg>
