<svg width="16" height="20" viewBox="0 0 16 20" fill="none" xmlns="http://www.w3.org/2000/svg">
<path d="M0 13.8V12.75C0 12.2722 0.244444 11.8833 0.733333 11.5833C1.22222 11.2833 1.86667 11.1333 2.66667 11.1333C2.81111 11.1333 2.95 11.1361 3.08333 11.1417C3.21667 11.1472 3.34444 11.1611 3.46667 11.1833C3.31111 11.4167 3.19444 11.6611 3.11667 11.9167C3.03889 12.1722 3 12.4389 3 12.7167V13.8H0ZM4 13.8V12.7167C4 12.3611 4.09722 12.0361 4.29167 11.7417C4.48611 11.4472 4.76111 11.1889 5.11667 10.9667C5.47222 10.7444 5.89722 10.5778 6.39167 10.4667C6.88611 10.3556 7.42222 10.3 8 10.3C8.58889 10.3 9.13056 10.3556 9.625 10.4667C10.1194 10.5778 10.5444 10.7444 10.9 10.9667C11.2556 11.1889 11.5278 11.4472 11.7167 11.7417C11.9056 12.0361 12 12.3611 12 12.7167V13.8H4ZM13 13.8V12.7167C13 12.4278 12.9639 12.1556 12.8917 11.9C12.8194 11.6444 12.7111 11.4056 12.5667 11.1833C12.6889 11.1611 12.8139 11.1472 12.9417 11.1417C13.0694 11.1361 13.2 11.1333 13.3333 11.1333C14.1333 11.1333 14.7778 11.2806 15.2667 11.575C15.7556 11.8694 16 12.2611 16 12.75V13.8H13ZM5.41667 12.4667H10.6C10.4889 12.2444 10.1806 12.05 9.675 11.8833C9.16945 11.7167 8.61111 11.6333 8 11.6333C7.38889 11.6333 6.83056 11.7167 6.325 11.8833C5.81944 12.05 5.51667 12.2444 5.41667 12.4667ZM2.66667 10.4667C2.3 10.4667 1.98611 10.3361 1.725 10.075C1.46389 9.81389 1.33333 9.5 1.33333 9.13333C1.33333 8.75556 1.46389 8.43889 1.725 8.18333C1.98611 7.92778 2.3 7.8 2.66667 7.8C3.04444 7.8 3.36111 7.92778 3.61667 8.18333C3.87222 8.43889 4 8.75556 4 9.13333C4 9.5 3.87222 9.81389 3.61667 10.075C3.36111 10.3361 3.04444 10.4667 2.66667 10.4667ZM13.3333 10.4667C12.9667 10.4667 12.6528 10.3361 12.3917 10.075C12.1306 9.81389 12 9.5 12 9.13333C12 8.75556 12.1306 8.43889 12.3917 8.18333C12.6528 7.92778 12.9667 7.8 13.3333 7.8C13.7111 7.8 14.0278 7.92778 14.2833 8.18333C14.5389 8.43889 14.6667 8.75556 14.6667 9.13333C14.6667 9.5 14.5389 9.81389 14.2833 10.075C14.0278 10.3361 13.7111 10.4667 13.3333 10.4667ZM8 9.8C7.44444 9.8 6.97222 9.60556 6.58333 9.21667C6.19444 8.82778 6 8.35556 6 7.8C6 7.23333 6.19444 6.75833 6.58333 6.375C6.97222 5.99167 7.44444 5.8 8 5.8C8.56667 5.8 9.04167 5.99167 9.425 6.375C9.80833 6.75833 10 7.23333 10 7.8C10 8.35556 9.80833 8.82778 9.425 9.21667C9.04167 9.60556 8.56667 9.8 8 9.8ZM8 8.46667C8.18889 8.46667 8.34722 8.40278 8.475 8.275C8.60278 8.14722 8.66667 7.98889 8.66667 7.8C8.66667 7.61111 8.60278 7.45278 8.475 7.325C8.34722 7.19722 8.18889 7.13333 8 7.13333C7.81111 7.13333 7.65278 7.19722 7.525 7.325C7.39722 7.45278 7.33333 7.61111 7.33333 7.8C7.33333 7.98889 7.39722 8.14722 7.525 8.275C7.65278 8.40278 7.81111 8.46667 8 8.46667Z" fill="#4B5563"/>
</svg>
