<svg width="30" height="37" viewBox="0 0 30 37" fill="none" xmlns="http://www.w3.org/2000/svg">
<path d="M13.6875 22.8374L20.75 15.7749L18.9688 13.9937L13.6875 19.2749L11.0625 16.6499L9.28125 18.4312L13.6875 22.8374ZM15 30.8999C12.1042 30.1707 9.71354 28.5093 7.82812 25.9155C5.94271 23.3218 5 20.4416 5 17.2749V9.6499L15 5.8999L25 9.6499V17.2749C25 20.4416 24.0573 23.3218 22.1719 25.9155C20.2865 28.5093 17.8958 30.1707 15 30.8999ZM15 28.2749C17.1667 27.5874 18.9583 26.2124 20.375 24.1499C21.7917 22.0874 22.5 19.7957 22.5 17.2749V11.3687L15 8.55615L7.5 11.3687V17.2749C7.5 19.7957 8.20833 22.0874 9.625 24.1499C11.0417 26.2124 12.8333 27.5874 15 28.2749Z" fill="#16A34A"/>
</svg>
